<?xml version="1.0" encoding="UTF-8"?>
<svg version="1.1" xmlns="http://www.w3.org/2000/svg" width="512" height="512">
<path d="M0 0 C1.15355978 -0.00262956 1.15355978 -0.00262956 2.3304238 -0.00531223 C4.92249549 -0.00998586 7.51451142 -0.00750323 10.1065855 -0.00507832 C11.97770871 -0.0069456 13.84883152 -0.00924598 15.71995372 -0.01194364 C20.87372097 -0.01807824 26.02747204 -0.0179261 31.18124211 -0.01674926 C36.73487069 -0.01654567 42.28849402 -0.02206001 47.84212017 -0.02680683 C58.72729354 -0.03512308 69.6124615 -0.03786211 80.49763779 -0.03841921 C89.34330799 -0.03889392 98.1889764 -0.04094639 107.03464603 -0.04411983 C128.01831866 -0.05149496 149.00199032 -0.05764437 169.98566437 -0.05712128 C170.65694233 -0.0571057 171.3282203 -0.05709012 172.01984002 -0.05707407 C175.42225435 -0.05699096 178.82466868 -0.05689192 182.22708301 -0.05678936 C183.24070331 -0.05675944 183.24070331 -0.05675944 184.27480079 -0.05672892 C185.64132621 -0.05668848 187.00785164 -0.05664669 188.37437706 -0.05660353 C209.63592469 -0.05599076 230.89745638 -0.0634972 252.15899944 -0.07717609 C276.03939295 -0.09253349 299.91977605 -0.10112985 323.80017585 -0.10021287 C336.44688369 -0.09988051 349.09357356 -0.10264459 361.74027729 -0.11339092 C372.50742751 -0.12248129 383.27455159 -0.12468325 394.04170398 -0.1178815 C399.53716537 -0.11460886 405.03257659 -0.11458636 410.52803326 -0.12323475 C415.55710343 -0.1310679 420.58608336 -0.12970104 425.61515125 -0.12095062 C427.43614054 -0.11940858 429.25713646 -0.12125812 431.07811794 -0.12681069 C433.55106424 -0.13385282 436.02369241 -0.12859127 438.49662781 -0.12025452 C439.55988832 -0.12770679 439.55988832 -0.12770679 440.64462885 -0.13530961 C445.78007771 -0.09864789 451.23914621 0.2237623 455.25348186 3.7028532 C457.02195152 7.32734052 457.67582533 10.98580257 458.37457561 14.94113445 C458.54005901 15.85346844 458.70554241 16.76580242 458.87604046 17.70578289 C464.33986492 48.90262417 466.57015776 80.11558709 466.68707561 111.75363445 C466.69243328 112.57695263 466.69779095 113.40027081 466.70331097 114.24853802 C466.7149839 116.59677202 466.71160503 118.94446017 466.70270061 121.29269695 C466.70664837 121.98295467 466.71059612 122.67321239 466.71466351 123.38438702 C466.67159921 127.93155025 465.98496797 131.85156348 464.43707561 136.12863445 C459.87097993 139.73344683 455.28971812 140.52969738 449.52301311 140.3903532 C445.82827102 139.92678069 443.0886331 138.66022493 440.43707561 136.12863445 C436.54798839 129.85038952 434.20699543 122.90317064 431.87457561 115.94113445 C422.91974315 90.44066165 410.19319562 66.68050799 385.38629436 54.06320477 C356.83024858 40.37175395 323.40787711 38.87722375 292.31207561 38.81613445 C291.40380016 38.81245861 290.49552471 38.80878277 289.55972576 38.80499554 C272.57727252 38.50076883 272.57727252 38.50076883 256.43707561 43.12863445 C254.03327581 46.73433416 254.18571926 48.34169711 254.18260002 52.63032627 C254.17939354 53.29680066 254.17618707 53.96327504 254.17288342 54.64994562 C254.1645347 56.89926545 254.17052462 59.14832237 254.1763792 61.3976469 C254.17336069 63.020269 254.16947272 64.64288968 254.16478664 66.26550782 C254.15445824 70.73727778 254.15670077 75.208968 254.16096723 79.68074465 C254.16342588 84.49899039 254.15443075 89.3172165 254.14692974 94.13545513 C254.13415416 103.58231931 254.13239281 113.0291551 254.13473 122.47602646 C254.13651106 130.15700689 254.13476808 137.83797869 254.13050556 145.51895809 C254.12961278 147.15711982 254.12961278 147.15711982 254.12870196 148.82837573 C254.12749022 151.04691163 254.12627609 153.26544752 254.12505958 155.48398341 C254.11417188 176.31174383 254.11635165 197.13948807 254.12244443 217.96724941 C254.12760796 237.01191699 254.11637523 256.05653334 254.09734621 275.10119079 C254.0779594 294.65395796 254.06971372 314.2067009 254.07346946 333.75947773 C254.07538109 344.73748561 254.07289821 355.71544994 254.05875492 366.69344997 C254.04682901 376.04523098 254.04544939 385.39694168 254.05754509 394.74872367 C254.06342684 399.51787826 254.0645529 404.28690433 254.05254269 409.0560503 C254.04165963 413.42862553 254.04481601 417.80096531 254.05880437 422.17352964 C254.06144478 423.74903085 254.05910554 425.32455065 254.05106851 426.90003358 C253.98871981 440.04248151 254.65933209 453.59906951 263.43707561 464.12863445 C280.61725787 479.72684781 306.26933449 484.61251921 328.0872221 489.55954266 C333.21331842 490.80098998 333.21331842 490.80098998 335.18707561 493.69113445 C336.72275919 497.9142643 336.7423567 500.85119306 335.43707561 505.12863445 C333.22046299 508.64464068 331.3228089 510.69769144 327.43707561 512.12863445 C324.53523159 512.3253675 321.72934592 512.41132027 318.82747173 512.40278912 C317.94961811 512.40802579 317.07176448 512.41326247 316.16730922 512.41865784 C313.22015751 512.43368258 310.27317904 512.43436353 307.32599163 512.43503094 C305.21531156 512.44265065 303.10463426 512.45107782 300.99396038 512.46025372 C295.25643587 512.48222163 289.51896465 512.49100049 283.78140283 512.49608016 C280.19863802 512.49972042 276.61588725 512.5059587 273.03312778 512.51308155 C260.53943421 512.53758211 248.04578222 512.55062967 235.55206585 512.55417156 C223.8969795 512.55780932 212.24215609 512.58772051 200.58715016 512.62957615 C190.58706492 512.66423272 180.58706703 512.67971918 170.58692211 512.6804176 C164.61136757 512.68121186 158.63608088 512.69001964 152.66058826 512.71841526 C147.04215622 512.74451701 141.42421564 512.74684514 135.80575085 512.73075962 C133.74215089 512.72893896 131.67852317 512.7356912 129.61498356 512.75157833 C126.80062295 512.77192752 123.98800008 512.76155309 121.17366314 512.74336529 C120.35440194 512.75656526 119.53514074 512.76976522 118.69105345 512.78336519 C114.41978786 512.72018634 112.90001347 512.50311075 109.45353889 509.71521378 C106.68568832 506.16480691 105.9621367 503.84861972 106.03326702 499.27463055 C106.78120322 495.29980635 109.51877011 492.78267314 112.43707561 490.12863445 C115.00622004 488.48066464 117.67203573 487.32691416 120.49957561 486.19113445 C121.27543011 485.86177898 122.0512846 485.53242352 122.85064983 485.19308758 C129.73243762 482.31074928 136.73540047 479.74250888 143.72467327 477.13547039 C149.40752505 474.98554429 154.92906133 472.63756926 160.37457561 469.94113445 C161.00637737 469.63240398 161.63817913 469.32367352 162.2891264 469.00558758 C172.82166399 463.6236237 177.61614653 455.50084142 181.28863811 444.6012907 C183.89784005 433.83346482 183.58334944 422.49783765 183.57078838 411.49586773 C183.57265959 409.93147518 183.57496152 408.36708311 183.57765371 406.80269176 C183.58373915 402.52932799 183.58364199 398.25598389 183.58245933 393.98261678 C183.58225451 389.36438059 183.58778156 384.74615057 183.5925169 380.12791729 C183.60080452 371.09224684 183.60357082 362.05658291 183.60412928 353.02090897 C183.60460503 345.67854415 183.60666274 338.33618147 183.6098299 330.99381733 C183.61862885 310.17161412 183.6232501 289.34941606 183.62249943 268.52721097 C183.62245947 267.40592242 183.62241952 266.28463387 183.62237835 265.12936687 C183.62231703 263.44537987 183.62231703 263.44537987 183.62225447 261.72737292 C183.6218475 243.50944522 183.63143172 225.29153814 183.64551672 207.07361641 C183.65986893 188.36249239 183.66678764 169.65137845 183.66592294 150.94024879 C183.66559072 140.4371089 183.66834897 129.93399068 183.67910099 119.43085575 C183.68819046 110.49483303 183.69039381 101.5588418 183.68359157 92.62281647 C183.6803194 88.06309967 183.68029491 83.50344336 183.68894482 78.94373226 C183.69677924 74.77111639 183.69540987 70.59860928 183.68666068 66.42599616 C183.68511901 64.91546056 183.68696684 63.40491696 183.69252076 61.89439078 C183.69956598 59.84264882 183.69429922 57.79128996 183.68596458 55.73956108 C183.68618195 54.59952792 183.68639932 53.45949477 183.68662328 52.28491515 C183.41983619 48.91059006 182.74526394 46.24655609 181.43707561 43.12863445 C177.20252545 39.89700407 173.2188044 39.00941966 167.98590374 38.98337078 C167.10978436 38.97699093 166.23366497 38.97061108 165.33099651 38.9640379 C163.91397442 38.96236866 163.91397442 38.96236866 162.46832561 38.9606657 C160.98314434 38.9556731 160.98314434 38.9556731 159.4679594 38.95057964 C157.36310572 38.94551375 155.25824399 38.94317121 153.15338421 38.94333172 C150.00431347 38.94118039 146.85561395 38.92312049 143.70660686 38.90402508 C126.5307062 38.85470751 109.66193596 39.86872094 92.81207561 43.37863445 C91.76213421 43.59551922 90.7121928 43.81240398 89.63043499 44.03586102 C70.55849859 48.12602919 51.10930575 54.74296181 36.43707561 68.12863445 C35.58113811 68.89304852 34.72520061 69.65746258 33.84332561 70.4450407 C16.93439936 86.38027879 6.34168129 107.99802372 -2.72112751 129.0700407 C-5.06534864 134.40005927 -7.06248032 138.38219148 -11.56292439 142.12863445 C-11.89292439 142.45863445 -12.22292439 142.78863445 -12.56292439 143.12863445 C-19.14942493 144.02545707 -24.9816157 142.75984733 -30.56292439 139.12863445 C-32.51196871 136.99532745 -33.5174698 135.78904611 -33.71844196 132.86911297 C-32.95174298 127.12378902 -31.79763358 121.64853034 -30.25042439 116.06613445 C-28.22264117 108.32898708 -26.64693898 100.5875535 -25.37542439 92.69113445 C-25.22097858 91.75326092 -25.06653278 90.81538738 -24.90740681 89.84909344 C-21.81714435 69.90407337 -21.07410197 49.86012086 -20.53387165 29.71457195 C-20.44260035 26.41458104 -20.33402036 23.11551429 -20.22308064 19.81613445 C-20.20109104 18.81413006 -20.17910145 17.81212566 -20.1564455 16.7797575 C-19.84549551 8.08423464 -19.84549551 8.08423464 -16.56292439 4.12863445 C-11.17358392 0.25936437 -6.47789834 -0.01859871 0 0 Z " fill="#000000" transform="translate(39.5629243850708,-0.12863445281982422)"/>
</svg>
